# File created by Blade
# Date/Time:  Thu Jan 22 16:36:26 2015
# Frame Rate: 120.000 fps
#------------------------------------------------------
:FULLY-SPECIFIED
:DEGREES
2788
root -1.267155 4.776917 -13.559691 -53.045297 29.668351 34.667081
RightUpLeg -81.493771 -27.905300 3.895598
RightLeg 105.412126 -0.000000 -0.000000
RightFoot 6.918214 -4.108096 34.299686
RightToeBase -357.305256 -0.000000 -0.000000
LeftUpLeg -54.232863 -3.613262 28.717861
LeftLeg 126.114857 -0.000000 -0.000000
LeftFoot 7.942930 18.914723 -12.508211
LeftToeBase -1.206605 -0.000000 0.000000
Spine 59.781870 8.999672 -16.427536
RightShoulder 7.294840 -37.627620 -37.222370
RightArm -2.795809 -48.406735 92.447061
RightForeArm -5.825074 -0.000000 66.858621
RightHand 36.095408 -0.000000 -69.244212
RightHandThumb1 -24.326973 -0.000000 -32.862282
LeftShoulder -29.254112 43.630478 -7.145486
LeftArm 29.094782 21.737639 -57.730736
LeftForeArm 9.640281 -0.000000 57.287027
LeftHand -22.389083 -0.000000 -16.393571
LeftHandThumb1 -26.253704 0.000000 33.147579
Head -4.097135 0.644603 -23.442448
2789
root -1.252959 4.756562 -13.558082 -53.326588 29.709698 34.309774
RightUpLeg -80.608686 -27.777050 3.178037
RightLeg 104.151555 -0.000000 -0.000000
RightFoot 6.409339 -4.413511 33.782498
RightToeBase -357.427545 -0.000000 -0.000000
LeftUpLeg -54.789935 -3.049296 28.076326
LeftLeg 125.217824 -0.000000 -0.000000
LeftFoot 7.720485 18.369649 -12.518374
LeftToeBase -1.557976 -0.000000 0.000000
Spine 59.892103 8.907174 -16.066412
RightShoulder 7.319942 -37.912113 -37.315881
RightArm -2.634974 -48.400405 92.290341
RightForeArm -5.738715 -0.000000 66.984646
RightHand 36.027456 -0.000000 -69.302094
RightHandThumb1 -24.326973 -0.000000 -32.862282
LeftShoulder -29.154497 43.704818 -7.006871
LeftArm 29.114872 21.807996 -57.689020
LeftForeArm 9.697430 -0.000000 57.615626
LeftHand -22.557791 -0.000000 -16.597334
LeftHandThumb1 -26.253704 0.000000 33.147579
Head -3.739920 0.362736 -23.085931
2790
root -1.224113 4.742527 -13.557339 -53.570663 29.849107 34.037395
RightUpLeg -79.779185 -27.698234 2.342304
RightLeg 102.929582 -0.000000 -0.000000
RightFoot 6.031620 -4.755315 32.928163
RightToeBase -357.553529 -0.000000 -0.000000
LeftUpLeg -55.341871 -2.473529 27.206175
LeftLeg 124.323010 -0.000000 -0.000000
LeftFoot 7.516556 17.804220 -12.695019
LeftToeBase -1.699381 -0.000000 0.000000
Spine 59.993255 8.816420 -15.853983
RightShoulder 7.371924 -37.997914 -37.400935
RightArm -2.808412 -48.380573 92.367727
RightForeArm -5.645571 0.000000 67.128072
RightHand 36.000806 -0.000000 -69.091787
RightHandThumb1 -24.326973 -0.000000 -32.862282
LeftShoulder -29.119965 43.756636 -6.856528
LeftArm 29.141456 21.930821 -57.644160
LeftForeArm 9.726972 -0.000000 57.919890
LeftHand -22.633184 0.000000 -16.718812
LeftHandThumb1 -26.253704 0.000000 33.147579
Head -3.399840 0.086909 -22.715918
2791
root -1.183425 4.729403 -13.559034 -53.748018 30.009696 33.819795
RightUpLeg -78.995770 -27.590222 1.394771
RightLeg 101.707456 -0.000000 -0.000000
RightFoot 6.044022 -4.883784 31.599114
RightToeBase -357.946804 -0.000000 -0.000000
LeftUpLeg -55.916122 -1.902458 26.279285
LeftLeg 123.479518 -0.000000 -0.000000
LeftFoot 7.279516 16.943238 -13.037828
LeftToeBase -2.017864 -0.000000 0.000000
Spine 60.037288 8.712438 -15.711485
RightShoulder 7.421126 -38.135837 -37.485076
RightArm -2.900711 -48.359385 92.376892
RightForeArm -5.506288 -0.000000 67.264547
RightHand 35.951518 -0.000000 -69.157367
RightHandThumb1 -24.326973 -0.000000 -32.862282
LeftShoulder -29.128732 43.864835 -6.770394
LeftArm 29.195118 22.017683 -57.610387
LeftForeArm 9.780298 -0.000000 58.224412
LeftHand -22.772826 -0.000000 -16.859671
LeftHandThumb1 -26.253704 0.000000 33.147579
Head -3.064773 -0.138253 -22.373736
2792
root -1.124665 4.726422 -13.561491 -53.917964 30.240073 33.638535
RightUpLeg -78.298939 -27.568854 0.476448
RightLeg 100.582203 -0.000000 -0.000000
RightFoot 5.575033 -5.152675 29.421501
RightToeBase -356.486096 -0.000000 -0.000000
LeftUpLeg -56.480831 -1.329407 25.146193
LeftLeg 122.650867 -0.000000 -0.000000
LeftFoot 6.994810 16.324380 -13.666332
LeftToeBase -2.327742 -0.000000 0.000000
Spine 60.096578 8.591247 -15.585899
RightShoulder 7.395745 -38.329956 -37.553730
RightArm -2.966978 -48.374555 92.319959
RightForeArm -5.380513 0.000000 67.397083
RightHand 35.948659 -0.000000 -69.084155
RightHandThumb1 -24.326973 -0.000000 -32.862282
LeftShoulder -29.137200 43.974994 -6.708524
LeftArm 29.271629 22.129824 -57.554816
LeftForeArm 9.793964 -0.000000 58.520486
LeftHand -22.904616 -0.000000 -16.977137
LeftHandThumb1 -26.253704 0.000000 33.147579
Head -2.716068 -0.417913 -22.107489
2793
root -1.096592 4.709785 -13.559168 -54.081772 30.341939 33.413865
RightUpLeg -77.604734 -27.405306 -0.244357
RightLeg 99.470392 -0.000000 -0.000000
RightFoot 5.324789 -5.843225 29.359716
RightToeBase -356.620946 -0.000000 -0.000000
LeftUpLeg -56.994595 -0.641362 24.160778
LeftLeg 121.738902 -0.000000 -0.000000
LeftFoot 6.875835 15.761942 -13.905930
LeftToeBase -2.958759 -0.000000 0.000000
Spine 60.148865 8.546030 -15.443664
RightShoulder 7.424451 -38.440381 -37.566270
RightArm -3.027367 -48.378511 92.292634
RightForeArm -5.236905 0.000000 67.485308
RightHand 35.917953 -0.000000 -69.107163
RightHandThumb1 -24.326973 -0.000000 -32.862282
LeftShoulder -29.139894 43.991130 -6.561955
LeftArm 29.254821 22.256106 -57.544471
LeftForeArm 9.828741 -0.000000 58.806436
LeftHand -23.020619 0.000000 -17.016727
LeftHandThumb1 -26.253704 0.000000 33.147579
Head -2.455195 -0.659195 -21.712323
2794
root -1.058957 4.696874 -13.561545 -54.285276 30.406442 33.152614
RightUpLeg -76.894961 -27.277480 -0.919674
RightLeg 98.357068 -0.000000 -0.000000
RightFoot 5.104887 -6.419712 29.271693
RightToeBase -356.614694 -0.000000 -0.000000
LeftUpLeg -57.502656 0.026282 23.142035
LeftLeg 120.861068 -0.000000 -0.000000
LeftFoot 6.764043 15.521615 -14.170378
LeftToeBase -2.958691 -0.000000 0.000000
Spine 60.253096 8.438004 -15.214015
RightShoulder 7.435092 -38.557873 -37.629405
RightArm -3.047801 -48.382913 92.210112
RightForeArm -5.105186 0.000000 67.589149
RightHand 35.843069 -0.000000 -69.092808
RightHandThumb1 -24.326973 -0.000000 -32.862282
LeftShoulder -29.199809 44.108720 -6.548899
LeftArm 29.345699 22.302579 -57.576272
LeftForeArm 9.919207 -0.000000 59.078644
LeftHand -23.128009 0.000000 -17.055854
LeftHandThumb1 -26.253704 0.000000 33.147579
Head -2.208920 -0.900078 -21.438955
2795
root -1.001543 4.680859 -13.559682 -54.341159 30.523435 33.052177
RightUpLeg -76.365433 -27.101109 -1.674493
RightLeg 97.356662 -0.000000 -0.000000
RightFoot 4.873067 -6.990178 29.562709
RightToeBase -356.635060 -0.000000 -0.000000
LeftUpLeg -58.071801 0.808844 21.928863
LeftLeg 120.019708 -0.000000 -0.000000
LeftFoot 6.799321 15.531606 -14.387244
LeftToeBase -2.735183 -0.000000 0.000000
Spine 60.212375 8.405992 -15.136377
RightShoulder 7.462906 -38.697931 -37.701031
RightArm -3.128512 -48.415877 92.151917
RightForeArm -5.010146 -0.000000 67.707135
RightHand 35.776581 0.000000 -69.092671
RightHandThumb1 -24.326973 -0.000000 -32.862282
LeftShoulder -29.201315 44.204455 -6.433810
LeftArm 29.273049 22.430828 -57.636243
LeftForeArm 9.924488 -0.000000 59.451739
LeftHand -23.260717 -0.000000 -17.049227
LeftHandThumb1 -26.253704 0.000000 33.147579
Head -1.898445 -1.037664 -21.114414
